<?xml version="1.0" standalone="no"?>
<!DOCTYPE svg PUBLIC "-//W3C//DTD SVG 20010904//EN"
 "http://www.w3.org/TR/2001/REC-SVG-20010904/DTD/svg10.dtd">
<svg version="1.0" xmlns="http://www.w3.org/2000/svg"
 width="1600.000000pt" height="1600.000000pt" viewBox="0 0 1600.000000 1600.000000"
 preserveAspectRatio="xMidYMid meet">

<g transform="translate(0.000000,1600.000000) scale(0.100000,-0.100000)"
fill="#000000" stroke="none">
<path d="M0 8000 l0 -8000 8000 0 8000 0 0 8000 0 8000 -8000 0 -8000 0 0
-8000z m13004 5673 c4 -38 60 -849 126 -1803 66 -954 205 -2975 310 -4490 105
-1515 215 -3119 246 -3563 31 -445 53 -811 51 -814 -3 -2 -715 -53 -1584 -113
-868 -60 -2656 -184 -3973 -275 -4694 -324 -5172 -357 -5176 -352 -5 4 -63
841 -394 5632 -72 1040 -180 2611 -241 3493 -61 882 -109 1606 -106 1608 2 3
2378 169 5278 369 2901 200 5292 366 5314 368 22 2 63 4 91 5 l52 2 6 -67z"/>
</g>
</svg>
