<?xml version="1.0" standalone="no"?>
<!DOCTYPE svg PUBLIC "-//W3C//DTD SVG 20010904//EN"
 "http://www.w3.org/TR/2001/REC-SVG-20010904/DTD/svg10.dtd">
<svg version="1.0" xmlns="http://www.w3.org/2000/svg"
 width="135.000000pt" height="135.000000pt" viewBox="0 0 135.000000 135.000000"
 preserveAspectRatio="xMidYMid meet">

<g transform="translate(0.000000,135.000000) scale(0.100000,-0.100000)"
fill="#000000" stroke="none">
<path d="M176 899 c-4 -12 -36 -283 -36 -301 0 -5 9 -8 19 -8 24 0 28 13 37
110 3 41 10 81 14 88 4 9 35 -25 93 -105 48 -65 87 -116 87 -113 0 3 9 77 19
165 11 88 19 161 18 161 -1 1 -11 4 -22 6 -21 3 -19 9 -40 -170 l-7 -53 -84
112 c-99 133 -92 125 -98 108z"/>
<path d="M910 710 c-12 -41 -26 -85 -31 -97 -6 -17 -5 -23 5 -23 8 0 22 23 32
53 l18 52 13 -45 c23 -79 23 -79 56 -15 l32 60 3 -52 c2 -36 7 -53 16 -53 11
0 13 19 9 88 -3 48 -6 92 -7 97 -2 6 -20 -24 -41 -65 -21 -41 -40 -70 -42 -63
-2 6 -12 40 -22 75 l-18 63 -23 -75z"/>
<path d="M1123 748 c-62 -69 -11 -183 73 -162 35 9 31 32 -5 26 -62 -9 -93 67
-46 113 27 28 37 30 67 14 25 -13 35 -5 18 16 -20 24 -83 19 -107 -7z"/>
<path d="M626 741 c-4 -5 -2 -12 3 -15 5 -4 12 -2 15 3 4 5 2 12 -3 15 -5 4
-12 2 -15 -3z"/>
<path d="M570 710 c0 -11 -3 -20 -8 -20 -4 0 -7 -22 -7 -50 0 -33 4 -50 13
-50 7 0 12 13 12 29 0 16 8 37 17 47 13 13 14 19 5 22 -6 2 -12 12 -12 23 0
10 -4 19 -10 19 -5 0 -10 -9 -10 -20z"/>
<path d="M450 675 c-6 -7 -10 -29 -8 -47 3 -31 6 -33 44 -36 41 -3 41 -2 47
35 4 21 7 43 7 48 0 16 -77 16 -90 0z m55 -35 c0 -16 -6 -26 -18 -28 -19 -4
-32 20 -23 44 9 25 41 13 41 -16z"/>
<path d="M616 668 c-9 -34 -7 -78 3 -78 9 0 21 47 21 81 0 26 -16 24 -24 -3z"/>
<path d="M664 665 c-30 -47 10 -94 64 -74 30 11 39 54 17 79 -25 28 -61 25
-81 -5z m64 -18 c5 -23 -16 -47 -34 -40 -14 5 -19 44 -7 57 12 12 38 1 41 -17z"/>
<path d="M776 642 c-9 -67 10 -75 23 -10 10 48 37 44 33 -4 -2 -22 1 -38 7
-38 13 0 24 40 19 71 -2 20 -9 24 -39 25 -36 2 -37 1 -43 -44z"/>
<path d="M510 485 c0 -43 1 -45 28 -44 23 2 24 2 5 6 -13 2 -23 11 -23 18 0 7
10 16 23 18 l22 4 -22 2 c-13 0 -23 7 -23 15 0 8 10 17 23 19 19 4 18 4 -5 6
-27 1 -28 -1 -28 -44z"/>
<path d="M719 514 c-3 -10 -2 -32 1 -49 l6 -30 5 31 c3 17 2 40 -1 50 -6 17
-7 17 -11 -2z"/>
<path d="M763 485 c0 -27 2 -38 4 -22 2 15 10 27 18 27 8 0 16 -12 18 -27 4
-26 4 -26 6 5 1 25 -3 32 -18 32 -11 0 -22 8 -24 18 -3 9 -5 -5 -4 -33z"/>
<path d="M887 523 c-13 -13 -7 -32 14 -38 25 -8 19 -31 -7 -27 -15 3 -16 1 -7
-8 15 -16 43 -6 43 14 0 9 -9 20 -20 26 -26 14 -25 28 3 33 20 4 20 4 1 6 -11
0 -24 -2 -27 -6z"/>
<path d="M961 497 c-16 -16 -13 -44 6 -51 9 -4 21 -2 27 4 8 8 6 9 -5 5 -10
-4 -20 -2 -24 4 -4 7 4 11 19 11 18 0 24 4 20 14 -8 20 -29 27 -43 13z m26
-13 c-3 -3 -12 -4 -19 -1 -8 3 -5 6 6 6 11 1 17 -2 13 -5z"/>
<path d="M1156 495 c-12 -13 -13 -21 -6 -36 12 -21 35 -25 46 -7 5 8 2 9 -9 5
-9 -3 -19 -2 -22 3 -4 6 3 10 14 10 24 0 27 12 7 29 -11 9 -18 8 -30 -4z m31
-11 c-3 -3 -12 -4 -19 -1 -8 3 -5 6 6 6 11 1 17 -2 13 -5z"/>
<path d="M584 485 c-8 -20 13 -44 37 -42 14 1 19 9 19 29 0 23 -4 28 -25 28
-14 0 -28 -7 -31 -15z m44 -12 c-2 -10 -10 -18 -18 -18 -8 0 -16 8 -18 18 -2
12 3 17 18 17 15 0 20 -5 18 -17z"/>
<path d="M661 473 c0 -16 3 -22 6 -13 3 8 10 21 16 28 7 8 5 12 -7 12 -11 0
-16 -8 -15 -27z"/>
<path d="M1030 470 c0 -16 2 -30 4 -30 2 0 6 14 8 30 3 17 1 30 -4 30 -4 0 -8
-13 -8 -30z"/>
<path d="M1085 470 c9 -16 17 -30 19 -30 2 0 9 15 15 33 9 27 9 30 -3 15 -16
-22 -26 -23 -26 -3 0 8 -5 15 -10 15 -6 0 -4 -13 5 -30z"/>
<path d="M1221 468 c1 -22 3 -26 6 -13 3 11 10 26 15 33 8 9 6 12 -6 12 -12 0
-16 -9 -15 -32z"/>
</g>
</svg>
